<?xml version="1.0" standalone="no"?>
<!DOCTYPE svg PUBLIC "-//W3C//DTD SVG 20010904//EN"
 "http://www.w3.org/TR/2001/REC-SVG-20010904/DTD/svg10.dtd">
<svg version="1.0" xmlns="http://www.w3.org/2000/svg"
 width="500.000000pt" height="300.000000pt" viewBox="0 0 500.000000 300.000000"
 preserveAspectRatio="xMidYMid meet">

<g transform="translate(0.000000,300.000000) scale(0.100000,-0.100000)"
fill="#000000" stroke="none">
<path d="M767 2523 c-12 -11 -8 -293 3 -293 6 0 29 9 52 21 86 44 222 70 396
76 109 4 162 10 161 17 0 6 -6 49 -13 96 l-11 85 -291 3 c-160 1 -293 -1 -297
-5z"/>
<path d="M1676 2503 c-11 -57 -27 -195 -23 -199 3 -3 42 -14 87 -25 111 -26
231 -84 307 -148 61 -50 64 -51 90 -38 16 8 52 22 81 31 l52 18 0 194 0 194
-294 0 -294 0 -6 -27z"/>
<path d="M2330 2347 l0 -185 103 5 c92 5 181 -3 255 -23 20 -6 22 -3 22 40 l0
46 54 0 c73 0 104 -24 108 -85 l3 -43 60 45 c67 51 176 105 248 124 26 6 47
16 47 23 -1 21 -41 101 -63 125 -33 35 -87 67 -148 87 -45 14 -107 18 -371 22
l-318 4 0 -185z"/>
<path d="M3300 2414 l0 -116 33 5 c88 16 336 29 447 24 151 -7 291 -40 387
-91 l65 -35 -5 35 c-10 58 -53 140 -97 184 -92 92 -185 110 -566 110 l-264 0
0 -116z"/>
<path d="M1087 2129 c-121 -16 -220 -57 -294 -122 l-33 -29 0 -405 0 -404 40
-58 c66 -98 185 -187 288 -216 l22 -6 1 538 c0 296 4 527 8 513 4 -14 48 -263
97 -554 l89 -528 95 5 c114 6 203 27 290 70 l65 32 80 500 80 500 5 -415 5
-414 32 60 c18 33 46 101 62 150 106 316 30 597 -190 702 -61 29 -195 69 -204
61 -2 -3 -27 -171 -55 -374 -28 -203 -52 -371 -54 -372 -1 -1 -26 169 -55 379
-29 210 -54 385 -57 390 -7 10 -228 8 -317 -3z"/>
<path d="M3530 2133 c-19 -1 -79 -8 -132 -14 l-98 -11 0 -594 0 -594 28 -11
c90 -35 151 -44 292 -44 230 0 347 42 475 170 50 50 82 94 113 153 l42 84 0
315 c0 301 -1 317 -21 349 -29 48 -103 110 -165 139 -49 23 -160 55 -194 55
-13 0 -15 -67 -12 -557 3 -578 1 -602 -38 -623 -10 -5 -43 -13 -74 -16 l-56
-7 0 607 0 606 -62 -2 c-35 0 -79 -3 -98 -5z"/>
<path d="M3166 2065 c-180 -75 -268 -221 -269 -445 0 -206 81 -428 208 -569
35 -39 142 -117 150 -109 9 9 25 182 25 273 0 235 -53 375 -161 428 l-51 26
39 20 c98 50 141 135 150 298 7 120 8 119 -91 78z"/>
<path d="M2395 1975 c-5 -2 -22 -6 -37 -9 l-28 -6 0 -685 0 -685 268 0 c370 0
449 15 535 98 64 61 64 66 4 100 -74 42 -157 112 -202 171 -22 28 -42 51 -46
51 -4 0 -11 -9 -14 -20 -9 -27 -55 -50 -116 -57 l-50 -6 2 502 c0 276 -1 504
-3 507 -3 2 -40 13 -83 24 -68 17 -198 26 -230 15z"/>
<path d="M2228 1925 l-26 -15 19 -60 c65 -211 36 -465 -80 -705 -52 -106 -125
-210 -185 -262 l-36 -32 0 -131 0 -130 175 0 175 0 0 675 c0 371 -3 675 -7
675 -5 -1 -20 -7 -35 -15z"/>
<path d="M4150 829 c-71 -54 -174 -103 -275 -131 -69 -19 -105 -22 -260 -21
-151 0 -191 3 -247 20 l-68 20 0 -63 0 -64 259 0 c143 0 295 5 338 11 140 19
234 83 287 195 15 31 26 60 24 65 -2 5 -28 -9 -58 -32z"/>
<path d="M764 847 c-2 -7 -3 -67 -2 -133 l3 -119 173 -3 173 -2 -3 51 -3 51
-70 22 c-86 28 -157 64 -219 110 -33 26 -48 32 -52 23z"/>
<path d="M1610 704 c-47 -13 -127 -27 -177 -31 -99 -6 -101 -8 -87 -61 6 -22
7 -22 177 -20 l171 3 7 35 c22 117 33 109 -91 74z"/>
</g>
</svg>
